<svg width="353" height="137" viewBox="0 0 353 137" fill="none" xmlns="http://www.w3.org/2000/svg">
<g filter="url(#filter0_d_679_4026)">
<rect x="90.8223" y="29.592" width="36.9529" height="51.8962" rx="10" transform="rotate(19.9022 90.8223 29.592)" fill="#F487EE"/>
<rect x="90.0724" y="27.9911" width="39.4529" height="54.3962" rx="11.25" transform="rotate(19.9022 90.0724 27.9911)" stroke="#292929" stroke-width="2.5"/>
</g>
<g filter="url(#filter1_d_679_4026)">
<rect x="50.9375" y="29.592" width="37.264" height="51.512" rx="10" fill="#65A1F6"/>
<rect x="49.6875" y="28.342" width="39.764" height="54.012" rx="11.25" stroke="#292929" stroke-width="2.5"/>
</g>
<g filter="url(#filter2_d_679_4026)">
<rect width="36.9529" height="51.8962" rx="10" transform="matrix(-0.940275 0.340415 0.340415 0.940275 47.8984 29.592)" fill="#548128"/>
<rect x="0.749825" y="-1.60086" width="39.4529" height="54.3962" rx="11.25" transform="matrix(-0.940275 0.340415 0.340415 0.940275 49.8983 29.2411)" stroke="#1E1E1E" stroke-width="2.5"/>
</g>
<path d="M140.359 41.04H146.599V60.192L145.639 61.968V67.008L146.599 69.024V78H140.359V41.04ZM144.103 64.416C144.711 61.536 145.719 59.04 147.127 56.928C148.535 54.784 150.263 53.12 152.311 51.936C154.391 50.752 156.695 50.16 159.223 50.16C161.879 50.16 164.231 50.768 166.279 51.984C168.327 53.168 169.927 54.832 171.079 56.976C172.231 59.088 172.807 61.568 172.807 64.416C172.807 67.232 172.231 69.712 171.079 71.856C169.927 74 168.327 75.68 166.279 76.896C164.231 78.08 161.879 78.672 159.223 78.672C156.695 78.672 154.391 78.08 152.311 76.896C150.263 75.712 148.535 74.048 147.127 71.904C145.719 69.76 144.711 67.264 144.103 64.416ZM166.471 64.416C166.471 62.592 166.087 60.992 165.319 59.616C164.583 58.208 163.559 57.12 162.247 56.352C160.935 55.552 159.431 55.152 157.735 55.152C156.039 55.152 154.439 55.552 152.935 56.352C151.463 57.12 150.167 58.208 149.047 59.616C147.927 60.992 147.015 62.592 146.311 64.416C147.015 66.24 147.927 67.856 149.047 69.264C150.167 70.64 151.463 71.728 152.935 72.528C154.439 73.296 156.039 73.68 157.735 73.68C159.431 73.68 160.935 73.296 162.247 72.528C163.559 71.728 164.583 70.64 165.319 69.264C166.087 67.856 166.471 66.24 166.471 64.416ZM203.344 78L202.288 67.92L203.536 64.416L202.288 60.96L203.344 50.832H209.776L208.336 64.416L209.776 78H203.344ZM205.264 64.416C204.656 67.264 203.648 69.76 202.24 71.904C200.832 74.048 199.088 75.712 197.008 76.896C194.96 78.08 192.672 78.672 190.144 78.672C187.488 78.672 185.136 78.08 183.088 76.896C181.04 75.68 179.44 74 178.288 71.856C177.136 69.712 176.56 67.232 176.56 64.416C176.56 61.568 177.136 59.088 178.288 56.976C179.44 54.832 181.04 53.168 183.088 51.984C185.136 50.768 187.488 50.16 190.144 50.16C192.672 50.16 194.96 50.752 197.008 51.936C199.088 53.12 200.832 54.784 202.24 56.928C203.68 59.04 204.688 61.536 205.264 64.416ZM182.896 64.416C182.896 66.24 183.264 67.856 184 69.264C184.768 70.64 185.808 71.728 187.12 72.528C188.432 73.296 189.936 73.68 191.632 73.68C193.36 73.68 194.96 73.296 196.432 72.528C197.904 71.728 199.2 70.64 200.32 69.264C201.472 67.856 202.384 66.24 203.056 64.416C202.384 62.592 201.472 60.992 200.32 59.616C199.2 58.208 197.904 57.12 196.432 56.352C194.96 55.552 193.36 55.152 191.632 55.152C189.936 55.152 188.432 55.552 187.12 56.352C185.808 57.12 184.768 58.208 184 59.616C183.264 60.992 182.896 62.592 182.896 64.416ZM245.781 67.296C245.461 69.536 244.581 71.52 243.141 73.248C241.701 74.944 239.861 76.272 237.621 77.232C235.381 78.192 232.885 78.672 230.133 78.672C226.997 78.672 224.229 78.08 221.829 76.896C219.461 75.68 217.605 74 216.261 71.856C214.917 69.712 214.245 67.232 214.245 64.416C214.245 61.6 214.917 59.12 216.261 56.976C217.605 54.832 219.461 53.168 221.829 51.984C224.229 50.768 226.997 50.16 230.133 50.16C232.885 50.16 235.381 50.64 237.621 51.6C239.861 52.56 241.701 53.904 243.141 55.632C244.581 57.328 245.461 59.312 245.781 61.584H239.493C239.045 59.536 237.973 57.936 236.277 56.784C234.581 55.632 232.533 55.056 230.133 55.056C228.213 55.056 226.533 55.44 225.093 56.208C223.653 56.944 222.533 58.016 221.733 59.424C220.965 60.8 220.581 62.464 220.581 64.416C220.581 66.336 220.965 68 221.733 69.408C222.533 70.816 223.653 71.904 225.093 72.672C226.533 73.408 228.213 73.776 230.133 73.776C232.565 73.776 234.629 73.184 236.325 72C238.021 70.816 239.077 69.248 239.493 67.296H245.781ZM256.755 72.576L254.931 71.904L272.211 50.832H279.411L256.323 78H250.515V41.04H256.755V72.576ZM264.483 64.56L268.851 60.624L280.227 78H272.883L264.483 64.56ZM294.751 78.672C292.255 78.672 290.127 78.16 288.367 77.136C286.639 76.112 285.311 74.64 284.383 72.72C283.455 70.8 282.991 68.512 282.991 65.856V50.832H289.231V64.896C289.231 67.712 289.871 69.856 291.151 71.328C292.463 72.768 294.335 73.488 296.767 73.488C298.527 73.488 300.031 73.104 301.279 72.336C302.559 71.568 303.551 70.48 304.255 69.072C304.959 67.632 305.311 65.968 305.311 64.08L307.471 65.28C307.215 68.064 306.511 70.464 305.359 72.48C304.207 74.464 302.719 76 300.895 77.088C299.071 78.144 297.023 78.672 294.751 78.672ZM306.895 78L305.311 68.208V50.832H311.551V69.168L313.135 78H306.895ZM318.531 50.832H324.771V60.288L324.483 61.248V66.72L324.771 68.4V85.92H318.531V50.832ZM322.371 64.416C322.979 61.536 323.987 59.04 325.395 56.928C326.803 54.784 328.531 53.12 330.579 51.936C332.659 50.752 334.963 50.16 337.491 50.16C340.147 50.16 342.499 50.768 344.547 51.984C346.595 53.168 348.195 54.832 349.347 56.976C350.499 59.088 351.075 61.568 351.075 64.416C351.075 67.232 350.499 69.712 349.347 71.856C348.195 74 346.595 75.68 344.547 76.896C342.499 78.08 340.147 78.672 337.491 78.672C334.963 78.672 332.675 78.08 330.627 76.896C328.579 75.712 326.835 74.048 325.395 71.904C323.987 69.76 322.979 67.264 322.371 64.416ZM344.739 64.416C344.739 62.592 344.355 60.992 343.587 59.616C342.851 58.208 341.827 57.12 340.515 56.352C339.203 55.552 337.699 55.152 336.003 55.152C334.307 55.152 332.707 55.552 331.203 56.352C329.731 57.12 328.435 58.208 327.315 59.616C326.195 60.992 325.283 62.592 324.579 64.416C325.283 66.24 326.195 67.856 327.315 69.264C328.435 70.64 329.731 71.728 331.203 72.528C332.707 73.296 334.307 73.68 336.003 73.68C337.699 73.68 339.203 73.296 340.515 72.528C341.827 71.728 342.851 70.64 343.587 69.264C344.355 67.856 344.739 66.24 344.739 64.416Z" fill="#292929"/>
<defs>
<filter id="filter0_d_679_4026" x="73.459" y="29.8955" width="54.8047" height="62.769" filterUnits="userSpaceOnUse" color-interpolation-filters="sRGB">
<feFlood flood-opacity="0" result="BackgroundImageFix"/>
<feColorMatrix in="SourceAlpha" type="matrix" values="0 0 0 0 0 0 0 0 0 0 0 0 0 0 0 0 0 0 127 0" result="hardAlpha"/>
<feOffset dx="3" dy="2"/>
<feComposite in2="hardAlpha" operator="out"/>
<feColorMatrix type="matrix" values="0 0 0 0 0 0 0 0 0 0 0 0 0 0 0 0 0 0 0.4 0"/>
<feBlend mode="normal" in2="BackgroundImageFix" result="effect1_dropShadow_679_4026"/>
<feBlend mode="normal" in="SourceGraphic" in2="effect1_dropShadow_679_4026" result="shape"/>
</filter>
<filter id="filter1_d_679_4026" x="48.4375" y="27.092" width="45.2637" height="58.512" filterUnits="userSpaceOnUse" color-interpolation-filters="sRGB">
<feFlood flood-opacity="0" result="BackgroundImageFix"/>
<feColorMatrix in="SourceAlpha" type="matrix" values="0 0 0 0 0 0 0 0 0 0 0 0 0 0 0 0 0 0 127 0" result="hardAlpha"/>
<feOffset dx="3" dy="2"/>
<feComposite in2="hardAlpha" operator="out"/>
<feColorMatrix type="matrix" values="0 0 0 0 0 0 0 0 0 0 0 0 0 0 0 0 0 0 0.4 0"/>
<feBlend mode="normal" in2="BackgroundImageFix" result="effect1_dropShadow_679_4026"/>
<feBlend mode="normal" in="SourceGraphic" in2="effect1_dropShadow_679_4026" result="shape"/>
</filter>
<filter id="filter2_d_679_4026" x="13.457" y="29.8955" width="54.8047" height="62.769" filterUnits="userSpaceOnUse" color-interpolation-filters="sRGB">
<feFlood flood-opacity="0" result="BackgroundImageFix"/>
<feColorMatrix in="SourceAlpha" type="matrix" values="0 0 0 0 0 0 0 0 0 0 0 0 0 0 0 0 0 0 127 0" result="hardAlpha"/>
<feOffset dx="3" dy="2"/>
<feComposite in2="hardAlpha" operator="out"/>
<feColorMatrix type="matrix" values="0 0 0 0 0 0 0 0 0 0 0 0 0 0 0 0 0 0 0.4 0"/>
<feBlend mode="normal" in2="BackgroundImageFix" result="effect1_dropShadow_679_4026"/>
<feBlend mode="normal" in="SourceGraphic" in2="effect1_dropShadow_679_4026" result="shape"/>
</filter>
</defs>
</svg>
