<?xml version="1.0" encoding="UTF-8"?>
<svg id="Layer_1" xmlns="http://www.w3.org/2000/svg" version="1.1" viewBox="0 0 755 749">
  <!-- Generator: Adobe Illustrator 29.8.5, SVG Export Plug-In . SVG Version: 2.1.1 Build 2)  -->
  <defs>
    <style>
      .st0 {
        fill: #548128;
      }

      .st1 {
        stroke-width: 2.5px;
      }

      .st1, .st2 {
        fill: none;
        stroke: #4f4d4d;
      }

      .st3 {
        fill: #f487ee;
      }

      .st2 {
        stroke-miterlimit: 4;
        stroke-width: 2.5px;
      }

      .st4 {
        fill: #65a1f6;
      }
    </style>
  </defs>
  <g>
    <path class="st3" d="M560.7,189.8l155.4,55.8c21.5,7.7,32.6,31.4,24.8,52.9l-90.3,247.4c-7.8,21.5-31.7,32.7-53.2,24.9l-155.4-55.8c-21.5-7.7-32.6-31.4-24.8-52.9l90.3-247.4c7.8-21.5,31.7-32.7,53.2-24.9Z"/>
    <path class="st2" d="M561.2,188.3l155.4,55.8c22.3,8,33.8,32.6,25.7,54.9l-90.3,247.4c-8.1,22.3-32.8,33.9-55.2,25.8l-155.4-55.8c-22.3-8-33.8-32.6-25.7-54.9l90.3-247.4c8.1-22.3,32.8-33.9,55.2-25.8Z"/>
  </g>
  <g>
    <rect class="st4" x="253.7" y="175.7" width="250.4" height="343.3" rx="41.4" ry="41.4"/>
    <rect class="st1" x="252.2" y="174.2" width="253.4" height="346.4" rx="43" ry="43"/>
  </g>
  <g>
    <path class="st0" d="M194.3,189.8l-155.4,55.8c-21.5,7.7-32.6,31.4-24.8,52.9l90.3,247.4c7.8,21.5,31.7,32.7,53.2,24.9l155.4-55.8c21.5-7.7,32.6-31.4,24.8-52.9l-90.3-247.4c-7.8-21.5-31.7-32.7-53.2-24.9Z"/>
    <path class="st2" d="M193.8,188.3l-155.4,55.8c-22.3,8-33.8,32.6-25.7,54.9l90.3,247.4c8.1,22.3,32.8,33.9,55.2,25.8l155.4-55.8c22.3-8,33.8-32.6,25.7-54.9l-90.3-247.4c-8.1-22.3-32.8-33.9-55.2-25.8Z"/>
  </g>
</svg>